<?xml version="1.0" encoding="UTF-8" standalone="no"?>
<!-- Created with Inkscape (http://www.inkscape.org/) -->

<svg
   id="svg4190"
   version="1.1"
   width="153.87845"
   height="170.57141"
   viewBox="0 0 144.26105 159.91069"
   xmlns="http://www.w3.org/2000/svg"
   xmlns:svg="http://www.w3.org/2000/svg"
   xmlns:rdf="http://www.w3.org/1999/02/22-rdf-syntax-ns#"
   xmlns:cc="http://creativecommons.org/ns#"
   xmlns:dc="http://purl.org/dc/elements/1.1/">
  <title
     id="title5454">W3 ORG Technologies and Blazons</title>
  <metadata
     id="metadata4196">
    <rdf:RDF>
      <cc:Work
         rdf:about="">
        <dc:format>image/svg+xml</dc:format>
        <dc:type
           rdf:resource="http://purl.org/dc/dcmitype/StillImage" />
        <dc:title>W3 ORG Technologies and Blazons</dc:title>
        <cc:license
           rdf:resource="http://creativecommons.org/publicdomain/zero/1.0/" />
        <dc:date>2018-06-23 (yyyy-mm-dd)</dc:date>
        <dc:creator>
          <cc:Agent>
            <dc:title>Victor Westmann</dc:title>
          </cc:Agent>
        </dc:creator>
        <dc:rights>
          <cc:Agent>
            <dc:title>None</dc:title>
          </cc:Agent>
        </dc:rights>
        <dc:publisher>
          <cc:Agent>
            <dc:title>Victor Westmann</dc:title>
          </cc:Agent>
        </dc:publisher>
        <dc:identifier>Victor Westmann</dc:identifier>
        <dc:relation>Author</dc:relation>
        <dc:language>English</dc:language>
        <dc:subject>
          <rdf:Bag>
            <rdf:li>Open Technologies</rdf:li>
            <rdf:li>World Wide Web</rdf:li>
            <rdf:li>SVG</rdf:li>
            <rdf:li>ODS</rdf:li>
            <rdf:li>ODF</rdf:li>
            <rdf:li>MathML</rdf:li>
            <rdf:li>HTML</rdf:li>
            <rdf:li>CSS</rdf:li>
            <rdf:li>JavaScript</rdf:li>
            <rdf:li>JS</rdf:li>
          </rdf:Bag>
        </dc:subject>
        <dc:contributor>
          <cc:Agent>
            <dc:title>Victor Westmann</dc:title>
          </cc:Agent>
        </dc:contributor>
      </cc:Work>
      <cc:License
         rdf:about="http://creativecommons.org/publicdomain/zero/1.0/">
        <cc:permits
           rdf:resource="http://creativecommons.org/ns#Reproduction" />
        <cc:permits
           rdf:resource="http://creativecommons.org/ns#Distribution" />
        <cc:permits
           rdf:resource="http://creativecommons.org/ns#DerivativeWorks" />
      </cc:License>
    </rdf:RDF>
  </metadata>
  <defs
     id="defs4194" />
  <g
     id="g5493"
     transform="matrix(0.39717402,0,0,0.39717402,-354.21083,-58.061039)">
    <g
       id="g10009"
       transform="translate(1223.802,15.173831)"
       style="fill:#ffcc00">
      <path
         style="fill:#ffcc00;fill-opacity:1;fill-rule:evenodd;stroke:none;stroke-width:1px;stroke-linecap:butt;stroke-linejoin:miter;stroke-opacity:1"
         d="m -152.02108,131.01156 v 0.008 l -179.95313,0.375 33.97656,360.87886 146.86719,40.9317 v 0.4277 l 0.76563,-0.2129 0.76562,0.2129 v -0.4277 l 146.86719,-40.9317 33.97656,-360.87886 -179.95117,-0.375 v -0.008 l -1.6582,0.004 z"
         id="path8532" />
      <path
         style="fill:#ffcc00;fill-rule:evenodd;stroke:none;stroke-width:0.836808px;stroke-linecap:butt;stroke-linejoin:miter;stroke-opacity:1"
         d="m -152.71444,161.83577 v 0.006 l -147.91797,0.32032 27.92773,307.43363 120.72266,34.871 v 0.3633 l 0.62891,-0.1816 0.19921,0.057 V 161.84017 h -0.19921 l -1.36133,-0.004 z"
         id="path8534" />
    </g>
    <path
       id="path8536"
       d="m 1073.5583,177.0096 v 342.49215 l 120.2422,-34.7324 27.9277,-307.43357 -147.916,-0.32032 v -0.006 h -0.2539 z"
       style="fill:#ffdd55;fill-rule:evenodd;stroke:none;stroke-width:0.836808px;stroke-linecap:butt;stroke-linejoin:miter;stroke-opacity:1" />
  </g>
  <g
     aria-label="6"
     style="font-style:normal;font-weight:normal;font-size:12.8px;line-height:0%;font-family:sans-serif;letter-spacing:0px;word-spacing:0px;fill:#ffffff;fill-opacity:1;stroke:none;stroke-width:1.06667px;stroke-linecap:butt;stroke-linejoin:miter;stroke-opacity:1"
     id="text9973"
     transform="matrix(0.37235053,0,0,0.37235053,-354.21083,-58.061039)">
    <path
       d="m 1148.7526,372.0697 q -18.9501,0 -28.5189,12.38323 -9.3813,12.19561 -9.3813,36.77445 0,24.57884 9.3813,36.96207 9.5688,12.19561 28.5189,12.19561 19.1378,0 28.519,-12.19561 9.5689,-12.38323 9.5689,-36.96207 0,-24.57884 -9.5689,-36.77445 -9.3812,-12.38323 -28.519,-12.38323 z m 89.3094,-134.52693 v 51.78443 q -17.8243,-8.44311 -33.5848,-12.38323 -15.7605,-4.12775 -30.7705,-4.12775 -32.2714,0 -50.2834,18.01198 -18.012,17.82434 -21.014,53.09779 12.3833,-9.19361 26.8304,-13.6966 14.4471,-4.69062 31.5209,-4.69062 42.9661,0 69.2335,25.14171 26.4551,25.14171 26.4551,65.85628 0,45.02993 -29.4571,72.23552 -29.457,27.01796 -78.99,27.01796 -54.5988,0 -84.6187,-36.77445 -29.8323,-36.96207 -29.8323,-104.69459 0,-69.42115 34.8982,-109.00997 35.0858,-39.77644 96.0638,-39.77644 19.3254,0 37.525,3.002 18.1996,3.00199 36.0239,9.00598 z"
       style="font-style:normal;font-variant:normal;font-weight:bold;font-stretch:normal;font-size:384.255px;line-height:125%;font-family:'Galano Grotesque DEMO';-inkscape-font-specification:'Galano Grotesque DEMO, Bold';text-align:start;writing-mode:lr-tb;text-anchor:start;fill:#ffffff;stroke-width:1.06667px"
       id="path1171" />
  </g>
</svg>
